# AST/ASF file generated using VICON BodyLanguage
# -----------------------------------------------
:version 1.10
:name VICON
:units
  mass 1.0
  length 0.45
  angle deg
:documentation
   .ast/.asf automatically generated from VICON data using
   VICON BodyBuilder and BodyLanguage model FoxedUp or BRILLIANT.MOD
:root
   order TX TY TZ RX RY RZ
   axis XYZ
   position 0 0 0  
   orientation 0 0 0 
:bonedata
  begin
     id 1 
     name lhipjoint
     direction 0.643824 -0.71708 0.266994 
     length 2.52133 
     axis 0 0 0  XYZ
  end
  begin
     id 2 
     name lfemur
     direction 0.34202 -0.939693 0  
     length 7.51824  
     axis 0 0 20  XYZ
    dof rx ry rz
    limits (-160.0 20.0)
           (-70.0 70.0)
           (-60.0 70.0)
  end
  begin
     id 3 
     name ltibia
     direction 0.34202 -0.939693 0   
     length 7.3685   
     axis 0 0 20   XYZ
    dof rx
    limits (-10.0 170.0)
  end
  begin
     id 4 
     name lfoot
     direction 0.105419 -0.289636 0.951314   
     length 2.20972   
     axis -90 7.62852e-016 20   XYZ
    dof rx rz
    limits (-45.0 90.0)
           (-70.0 20.0)
  end
  begin
     id 5 
     name ltoes
     direction 1.53549e-011 -4.21833e-011 1   
     length 1.10139   
     axis -90 7.62852e-016 20   XYZ
    dof rx
    limits (-90.0 20.0)
  end
  begin
     id 6 
     name rhipjoint
     direction -0.608823 -0.743445 0.276811   
     length 2.43192  
     axis 0 0 0  XYZ 
  end
  begin
     id 7 
     name rfemur
     direction -0.34202 -0.939693 0   
     length 7.69715   
     axis 0 0 -20   XYZ
    dof rx ry rz
    limits (-160.0 20.0)
           (-70.0 70.0)
           (-70.0 60.0)
  end
  begin
     id 8 
     name rtibia
     direction -0.34202 -0.939693 0   
     length 7.44924   
     axis 0 0 -20   XYZ
    dof rx
    limits (-10.0 170.0)
 end
 begin
     id 9 
     name rfoot
     direction -0.103614 -0.284677 0.953007   
     length 2.22623  
     axis -90 -7.62852e-016 -20   XYZ
    dof rx rz
    limits (-45.0 90.0)
           (-20.0 70.0)
  end
  begin
     id 10 
     name rtoes
     direction -1.53537e-011 -4.22026e-011 1   
     length 1.11   
     axis -90 -7.62852e-016 -20   XYZ
    dof rx
    limits (-90.0 20.0)
  end
  begin
     id 11 
     name lowerback
     direction -0.0101212 0.99662 -0.0815298   
     length 2.08277   
     axis 0 0 0   XYZ
    dof rx ry rz
    limits (-20.0 45.0)
           (-30.0 30.0)
           (-30.0 30.0)
  end
  begin
     id 12 
     name upperback
     direction 0.024314 0.999591 -0.0150645   
     length 2.08524   
     axis 0 0 0   XYZ
    dof rx ry rz
    limits (-20.0 45.0)
           (-30.0 30.0)
           (-30.0 30.0)
  end
  begin
     id 13 
     name thorax
     direction 0.0285959 0.999323 0.0231357   
     length 2.09645   
     axis 0 0 0   XYZ
    dof rx ry rz
    limits (-20.0 45.0)
           (-30.0 30.0)
           (-30.0 30.0)
  end
  begin
     id 14 
     name lowerneck
     direction -0.065512 0.979301 0.191515   
     length 1.63798   
     axis 0 0 0   XYZ
    dof rx ry rz
    limits (-20.0 45.0)
           (-30.0 30.0)
           (-30.0 30.0)
  end
  begin
     id 15 
     name upperneck
     direction 0.0498479 0.98191 -0.182667   
     length 1.68731   
     axis 0 0 0   XYZ
    dof rx ry rz
    limits (-20.0 45.0)
           (-30.0 30.0)
           (-30.0 30.0)
  end
  begin
     id 16
     name head
     direction 0.0230358 0.996257 -0.0833175  
     length 1.69785  
     axis 0 0 0   XYZ
    dof rx ry rz
    limits (-20.0 45.0)
           (-30.0 30.0)
           (-30.0 30.0)
  end
  begin
     id 17 
     name lclavicle
     direction 0.967963 0.201165 -0.150269  
     length 3.63976  
     axis 0 0 0   XYZ
    dof ry rz
    limits (-20.0 10.0)
           (0.0 20.0)
  end
  begin
     id 18 
     name lhumerus
     direction 1 -4.48954e-011 -2.92837e-028   
     length 5.32462   
     axis 180 -30 -90   XYZ
    dof rx ry rz
    limits (-60.0 90.0)
           (-90.0 90.0)
           (-90.0 90.0)
  end
  begin
     id 19
     name lradius
     direction 1 -4.48958e-011 -6.39511e-027   
     length 3.48402   
     axis 180 -30 -90   XYZ
    dof rx
    limits (-10.0 170.0)
  end
  begin
     id 20
     name lwrist
     direction 1 -4.48975e-011 -1.1413e-026   
     length 1.74201   
     axis 6.88575e-015 90 90   XYZ
    dof ry
    limits (-180.0 0.0)
 end
  begin
     id 21 
     name lhand
     direction 1 -4.48899e-011 -2.28192e-026   
     length 0.572476   
     axis 1.45643e-014 90 90   XYZ
    dof rx rz
    limits (-90.0 90.0)
           (-45.0 45.0)
  end
  begin
     id 22 
     name lfingers
     direction 1 -4.49155e-011 -4.5684e-026   
     length 0.461545   
     axis 2.91283e-014 90 90   XYZ
    dof rx
    limits (0.0 90.0)
  end
  begin
     id 23
     name lthumb
     direction 0.707107 -6.34943e-011 0.707107   
     length 0.662688   
     axis -90 45 -2.25915e-014   XYZ
    dof rx rz
    limits (-45.0 45.0)
           (-45.0 45.0)
  end
  begin
     id 24 
     name rclavicle
     direction -0.964103 0.264019 -0.0282629   
     length 3.54491  
     axis 0 0 0   XYZ 
    dof ry rz
    limits (-10.0 20.0)
           (-20.0 0.0)
  end
  begin
     id 25 
     name rhumerus
     direction -1 -4.48964e-011 -2.45032e-027  
     length 5.33589   
     axis 180 30 90   XYZ
    dof rx ry rz
    limits (-90.0 60.0)
           (-90.0 90.0)
           (-90.0 90.0)
  end
  begin
     id 26 
     name rradius
     direction -1 -4.48987e-011 -1.55093e-027   
     length 3.64134   
     axis 180 30 90   XYZ
    dof rx
    limits (-10.0 170.0)
  end
  begin
     id 27 
     name rwrist
     direction -1 -4.4897e-011 -1.14128e-026   
     length 1.82067   
     axis 6.88575e-015 -90 -90   XYZ
    dof ry
    limits (-180.0 0.0)
  end
  begin
     id 28
     name rhand
     direction -1 -4.49021e-011 -2.28301e-026   
     length 0.734811   
     axis 1.45643e-014 -90 -90   XYZ
    dof rx rz
    limits (-90.0 90.0)
           (-45.0 45.0)
  end
  begin
     id 29
     name rfingers
     direction -1 -4.48862e-011 -4.56319e-026   
     length 0.592424   
     axis 2.91283e-014 -90 -90   XYZ
    dof rx
    limits (0.0 90.0)
  end
  begin
     id 30
     name rthumb
     direction -0.707107 -6.34978e-011 0.707107   
     length 0.850605   
     axis -90 -45 2.25915e-014   XYZ
    dof rx rz
    limits (-45.0 45.0)
           (-45.0 45.0)
  end
:hierarchy
  begin
    root lhipjoint rhipjoint lowerback
    lhipjoint lfemur
    lfemur ltibia
    ltibia lfoot
    lfoot ltoes
    rhipjoint rfemur
    rfemur rtibia
    rtibia rfoot
    rfoot rtoes
    lowerback upperback
    upperback thorax
    thorax lowerneck lclavicle rclavicle
    lowerneck upperneck
    upperneck head
    lclavicle lhumerus
    lhumerus lradius
    lradius lwrist
    lwrist lhand lthumb
    lhand lfingers
    rclavicle rhumerus
    rhumerus rradius
    rradius rwrist
    rwrist rhand rthumb
    rhand rfingers
  end

#!OML:ASF F:\VICON\USERDATA\INSTALL\rory3\rory3.ASF
:FULLY-SPECIFIED
:DEGREES
86
root 0.0860788 17.8815 -4.01133 8.04865 -2.32896 1.42502
lowerback 6.92715 -0.484452 -0.74417
upperback 2.92458 -0.657548 2.47537
thorax -0.828743 -0.347647 3.01847
lowerneck -23.4846 -2.11182 -10.131
upperneck 25.8368 0.344455 1.72153
head 12.504 -0.634781 2.40691
rclavicle 4.96962e-015 -1.43125e-014
rhumerus -25.998 10.1444 -81.5036
rradius 36.9307
rwrist 14.0438
rhand -22.6665 0.310105
rfingers 7.12502
rthumb 3.76514 -29.6364
lclavicle 4.96962e-015 -1.43125e-014
lhumerus -33.8269 -8.17597 92.6379
lradius 37.9921
lwrist -6.27216
lhand -14.2859 25.4152
lfingers 7.12502
lthumb 11.8534 55.0597
rfemur -18.0021 5.91474 11.4022
rtibia 28.8236
rfoot -17.2989 -5.96957
rtoes -3.31327
lfemur -22.143 -0.482154 -17.0717
ltibia 24.4256
lfoot -5.59576 5.44688
ltoes -21.1278
87
root 0.129598 17.882 -4.00276 8.25559 -2.15816 1.56208
lowerback 6.94727 -0.441253 -0.878962
upperback 3.0125 -0.611648 2.3407
thorax -0.752032 -0.32638 2.95132
lowerneck -23.5139 -2.09775 -10.1248
upperneck 25.6726 0.359261 1.73469
head 12.4427 -0.619409 2.41097
rclavicle -9.34288e-015 -6.36111e-015
rhumerus -25.9629 10.289 -81.7513
rradius 36.7085
rwrist 14.2985
rhand -22.713 0.661987
rfingers 7.12502
rthumb 3.7203 -29.2853
lclavicle -9.34288e-015 -6.36111e-015
lhumerus -33.7378 -7.86598 92.5531
lradius 38.1736
lwrist -6.02732
lhand -14.6219 26.4759
lfingers 7.12502
lthumb 11.5294 56.1388
rfemur -18.1172 5.83155 11.0989
rtibia 28.7348
rfoot -17.2631 -6.20462
rtoes -4.27284
lfemur -22.3884 -0.704843 -17.3692
ltibia 24.4564
lfoot -5.58266 5.45653
ltoes -21.3162
88
root 0.172424 17.8837 -3.99686 8.47012 -1.93724 1.62763
lowerback 6.99378 -0.409092 -0.956438
upperback 3.10028 -0.5759 2.25227
thorax -0.689552 -0.309934 2.90084
lowerneck -23.3514 -2.09577 -10.1902
upperneck 25.3425 0.345303 1.78276
head 12.2802 -0.612727 2.43193
rclavicle -1.13307e-014 -1.59028e-014
rhumerus -25.9279 10.254 -81.9477
rradius 36.4619
rwrist 14.8938
rhand -22.8571 1.17781
rfingers 7.12502
rthumb 3.58111 -28.7719
lclavicle -1.13307e-014 -1.59028e-014
lhumerus -33.5501 -7.52495 92.4956
lradius 38.3053
lwrist -5.44447
lhand -14.2443 28.0918
lfingers 7.12502
lthumb 11.8936 57.7339
rfemur -18.218 5.76363 10.8727
rtibia 28.6243
rfoot -17.2835 -6.42783
rtoes -4.67903
lfemur -22.6685 -0.755371 -17.6147
ltibia 24.4879
lfoot -5.58406 5.25992
ltoes -21.2206
89
root 0.21299 17.8841 -3.98975 8.70225 -1.73262 1.61912
lowerback 7.04735 -0.395042 -1.02159
upperback 3.18208 -0.562654 2.21555
thorax -0.635331 -0.304879 2.89876
lowerneck -23.2652 -2.09931 -10.2966
upperneck 25.0564 0.345947 1.8427
head 12.1502 -0.603763 2.46746
rclavicle 1.98785e-015 1.11319e-014
rhumerus -25.9162 10.3304 -82.1593
rradius 36.2193
rwrist 15.7506
rhand -22.9622 1.62753
rfingers 7.12502
rthumb 3.4796 -28.3238
lclavicle 1.98785e-015 1.11319e-014
lhumerus -33.2972 -7.03178 92.3902
lradius 38.3937
lwrist -4.96551
lhand -13.8772 28.9321
lfingers 7.12502
lthumb 12.2475 58.5535
rfemur -18.3149 5.76596 10.7261
rtibia 28.4819
rfoot -17.4098 -6.61273
rtoes -4.20243
lfemur -22.9657 -0.765351 -17.7605
ltibia 24.5267
lfoot -5.68524 5.01394
ltoes -20.8454
90
root 0.25291 17.8852 -3.98364 8.9318 -1.49616 1.69113
lowerback 7.22263 -0.366146 -1.19837
upperback 3.17814 -0.535843 2.17646
thorax -0.736478 -0.291478 2.95822
lowerneck -23.1814 -2.14592 -10.4445
upperneck 24.886 0.289898 1.94975
head 12.0707 -0.621802 2.52006
rclavicle 1.07344e-014 -5.56597e-015
rhumerus -26.0686 10.3294 -82.3625
rradius 35.9944
rwrist 16.3955
rhand -23.049 1.92311
rfingers 7.12502
rthumb 3.39579 -28.0296
lclavicle 1.07344e-014 -5.56597e-015
lhumerus -33.1783 -6.53798 92.3317
lradius 38.4318
lwrist -4.67347
lhand -14.0727 28.8247
lfingers 7.12502
lthumb 12.059 58.4573
rfemur -18.4022 5.87519 10.4961
rtibia 28.3091
rfoot -17.5594 -6.93233
rtoes -3.52131
lfemur -23.2709 -0.959312 -17.9496
ltibia 24.5732
lfoot -5.82208 4.92739
ltoes -20.5924
91
root 0.293806 17.8895 -3.97869 9.17567 -1.28647 1.68296
lowerback 7.44978 -0.280186 -1.24716
upperback 3.11843 -0.425352 2.11062
thorax -0.930618 -0.23336 2.91181
lowerneck -22.9772 -2.21566 -10.493
upperneck 24.7194 0.162578 2.00955
head 11.9748 -0.668465 2.52618
rclavicle -1.0138e-014 0
rhumerus -26.2893 10.299 -82.6071
rradius 35.711
rwrist 16.6724
rhand -23.1947 1.92794
rfingers 7.12502
rthumb 3.25507 -28.027
lclavicle -1.0138e-014 0
lhumerus -33.2281 -6.29483 92.3265
lradius 38.5388
lwrist -4.32373
lhand -14.451 28.861
lfingers 7.12502
lthumb 11.6942 58.5146
rfemur -18.5302 6.02791 10.341
rtibia 28.1338
rfoot -17.6292 -7.31498
rtoes -3.18117
lfemur -23.5772 -1.12407 -18.0609
ltibia 24.6088
lfoot -5.82023 4.85141
ltoes -20.4552
92
root 0.334958 17.8937 -3.97234 9.43926 -1.1344 1.65529
lowerback 7.55336 -0.181223 -1.24753
upperback 3.1124 -0.295827 1.99684
thorax -1.00269 -0.167109 2.78465
lowerneck -22.7586 -2.25154 -10.4027
upperneck 24.5203 0.0489531 2.00371
head 11.8623 -0.70369 2.48661
rclavicle 1.35174e-014 -3.18055e-015
rhumerus -26.4805 10.1919 -82.9236
rradius 35.4536
rwrist 17.0666
rhand -23.395 1.86846
rfingers 7.12502
rthumb 3.06166 -28.0893
lclavicle 1.35174e-014 -3.18055e-015
lhumerus -33.2485 -6.24266 92.2444
lradius 38.7232
lwrist -3.89295
lhand -14.6386 29.0491
lfingers 7.12502
lthumb 11.5133 58.7129
rfemur -18.6852 6.12802 10.1994
rtibia 27.979
rfoot -17.6653 -7.60176
rtoes -2.85893
lfemur -23.8792 -1.0857 -18.1879
ltibia 24.6007
lfoot -5.81107 4.61842
ltoes -19.9454
93
root 0.373482 17.8978 -3.96843 9.72262 -0.906941 1.68768
lowerback 7.58857 -0.120616 -1.32035
upperback 3.19011 -0.222782 1.89074
thorax -0.946384 -0.131828 2.70985
lowerneck -22.7702 -2.30736 -10.3763
upperneck 24.3806 -0.0613749 2.07791
head 11.8171 -0.735207 2.49001
rclavicle -5.36719e-015 9.54166e-015
rhumerus -26.5409 10.1146 -83.2459
rradius 35.2565
rwrist 17.4543
rhand -23.4994 1.79152
rfingers 7.12502
rthumb 2.96085 -28.1677
lclavicle -5.36719e-015 9.54166e-015
lhumerus -33.039 -6.09421 92.1496
lradius 38.8022
lwrist -3.47633
lhand -14.6793 29.0919
lfingers 7.12502
lthumb 11.4741 58.7579
rfemur -18.8157 6.25389 10.0093
rtibia 27.8315
rfoot -17.8443 -7.98058
rtoes -2.71289
lfemur -24.2086 -0.957137 -18.4036
ltibia 24.5574
lfoot -5.85937 4.21796
ltoes -19.9693
94
root 0.41147 17.9022 -3.9664 10.0152 -0.607869 1.76153
lowerback 7.66504 -0.0975915 -1.4348
upperback 3.26324 -0.202106 1.81335
thorax -0.914152 -0.122846 2.69292
lowerneck -22.833 -2.40959 -10.568
upperneck 24.2465 -0.186656 2.27774
head 11.7865 -0.777512 2.57428
rclavicle -5.56597e-015 -8.74653e-015
rhumerus -26.5316 10.2116 -83.5466
rradius 34.8605
rwrist 17.999
rhand -23.9702 1.9235
rfingers 7.12502
rthumb 2.50617 -28.0415
lclavicle -5.56597e-015 -8.74653e-015
lhumerus -32.8145 -5.89677 92.109
lradius 38.8514
lwrist -3.08348
lhand -14.9108 29.1271
lfingers 7.12502
lthumb 11.2508 58.8054
rfemur -18.9549 6.25896 9.79551
rtibia 27.687
rfoot -17.9415 -8.39932
rtoes -3.24807
lfemur -24.5636 -0.893241 -18.6588
ltibia 24.4964
lfoot -5.85534 3.8331
ltoes -20.333
95
root 0.450211 17.9051 -3.96359 10.2138 -0.319222 1.78411
lowerback 7.91899 -0.077565 -1.49477
upperback 3.31194 -0.182585 1.7478
thorax -1.00531 -0.112468 2.6588
lowerneck -22.8545 -2.48714 -10.7535
upperneck 24.1439 -0.271886 2.43644
head 11.758 -0.807963 2.64896
rclavicle 2.98177e-015 -6.36111e-015
rhumerus -26.5935 10.3 -83.8604
rradius 34.2571
rwrist 18.9302
rhand -24.7768 2.43483
rfingers 7.12502
rthumb 1.72711 -27.5379
lclavicle 2.98177e-015 -6.36111e-015
lhumerus -32.7288 -5.82399 92.0984
lradius 39.0238
lwrist -2.57393
lhand -15.5184 29.1523
lfingers 7.12502
lthumb 10.6647 58.8616
rfemur -19.0159 6.21851 9.64721
rtibia 27.5544
rfoot -17.9782 -8.70939
rtoes -2.99143
lfemur -24.7994 -0.835896 -18.8426
ltibia 24.396
lfoot -5.72982 3.44774
ltoes -20.324
96
root 0.489035 17.9075 -3.95924 10.4769 -0.0832307 1.70536
lowerback 8.04752 -0.0267783 -1.45228
upperback 3.41792 -0.114152 1.70709
thorax -0.971072 -0.0790807 2.5872
lowerneck -23.043 -2.55911 -10.8082
upperneck 24.028 -0.328548 2.4347
head 11.7545 -0.834113 2.64617
rclavicle -2.38542e-015 -3.97569e-015
rhumerus -26.6321 10.3391 -84.1363
rradius 33.8828
rwrist 19.5958
rhand -25.1198 2.6822
rfingers 7.12502
rthumb 1.39584 -27.293
lclavicle -2.38542e-015 -3.97569e-015
lhumerus -32.5962 -5.84693 92.1133
lradius 39.3651
lwrist -2.05933
lhand -15.7966 29.5166
lfingers 7.12502
lthumb 10.3964 59.2395
rfemur -19.1582 6.24278 9.5879
rtibia 27.4134
rfoot -17.9953 -8.96554
rtoes -2.83789
lfemur -25.0663 -0.801247 -18.894
ltibia 24.2574
lfoot -5.57718 3.12814
ltoes -19.9134
97
root 0.527009 17.9108 -3.95438 10.8743 0.145213 1.66754
lowerback 8.05574 0.0471135 -1.43817
upperback 3.46707 -0.0165511 1.62842
thorax -0.930482 -0.030587 2.48925
lowerneck -23.202 -2.61839 -10.7045
upperneck 23.9165 -0.400154 2.33122
head 11.7471 -0.865946 2.57655
rclavicle 2.5842e-015 -3.18055e-015
rhumerus -26.705 10.2187 -84.4692
rradius 33.6045
rwrist 20.0522
rhand -25.4649 3.09064
rfingers 7.12502
rthumb 1.06256 -26.8865
lclavicle 2.5842e-015 -3.18055e-015
lhumerus -32.4613 -5.99248 92.117
lradius 39.5859
lwrist -1.71762
lhand -15.7574 29.845
lfingers 7.12502
lthumb 10.4342 59.5661
rfemur -19.4051 6.22934 9.45763
rtibia 27.2285
rfoot -18.1294 -9.15278
rtoes -2.64095
lfemur -25.482 -0.748271 -18.9921
ltibia 24.1539
lfoot -5.52678 2.77233
ltoes -19.4213
98
root 0.563034 17.9146 -3.95085 11.2599 0.352273 1.71201
lowerback 8.12581 0.109514 -1.53689
upperback 3.46057 0.056638 1.51058
thorax -0.979762 0.00656333 2.41685
lowerneck -23.1685 -2.64574 -10.5871
upperneck 23.7766 -0.478336 2.29833
head 11.6913 -0.8894 2.52979
rclavicle 5.96354e-016 6.36111e-015
rhumerus -26.8298 10.2749 -84.8895
rradius 33.2905
rwrist 20.4601
rhand -25.8091 3.86154
rfingers 7.12502
rthumb 0.730147 -26.117
lclavicle 5.96354e-016 6.36111e-015
lhumerus -32.3389 -6.21187 92.0779
lradius 39.6247
lwrist -1.50098
lhand -16.0069 29.7824
lfingers 7.12502
lthumb 10.1935 59.5155
rfemur -19.6378 6.24006 9.24171
rtibia 27.033
rfoot -18.2709 -9.46782
rtoes -2.51015
lfemur -25.8719 -0.698056 -19.1743
ltibia 24.0866
lfoot -5.51006 2.41218
ltoes -19.0299
99
root 0.597051 17.9201 -3.94854 11.648 0.620297 1.64786
lowerback 8.19045 0.133512 -1.56553
upperback 3.46614 0.0854397 1.4802
thorax -1.01119 0.0212948 2.39919
lowerneck -23.1326 -2.69362 -10.6835
upperneck 23.6329 -0.534491 2.36215
head 11.6341 -0.909893 2.55805
rclavicle -5.56597e-015 2.38542e-015
rhumerus -26.9964 10.6003 -85.2747
rradius 33.0695
rwrist 20.7966
rhand -25.8702 4.64215
rfingers 7.12502
rthumb 0.671098 -25.3365
lclavicle -5.56597e-015 2.38542e-015
lhumerus -32.3018 -6.26778 92.0642
lradius 39.8487
lwrist -1.4276
lhand -15.8226 30.4727
lfingers 7.12502
lthumb 10.3713 60.197
rfemur -19.8712 6.13753 9.18653
rtibia 26.8398
rfoot -18.2421 -9.77444
rtoes -2.77832
lfemur -26.284 -0.480215 -19.278
ltibia 24.0251
lfoot -5.48645 1.86854
ltoes -19.0757
